<svg xmlns="http://www.w3.org/2000/svg" xmlns:xlink="http://www.w3.org/1999/xlink" width="1920" zoomAndPan="magnify" viewBox="0 0 1440 809.999993" height="1080" preserveAspectRatio="xMidYMid meet" version="1.0"><defs><filter x="0%" y="0%" width="100%" height="100%" id="88adeae85c"><feColorMatrix values="0 0 0 0 1 0 0 0 0 1 0 0 0 0 1 0 0 0 1 0" color-interpolation-filters="sRGB"/></filter><clipPath id="91036cac20"><path d="M 508.855469 25.34375 L 931.105469 25.34375 L 931.105469 809.84375 L 508.855469 809.84375 Z M 508.855469 25.34375 " clip-rule="nonzero"/></clipPath><clipPath id="1323321196"><path d="M 850 548 L 931.105469 548 L 931.105469 609 L 850 609 Z M 850 548 " clip-rule="nonzero"/></clipPath><clipPath id="c18d3598e8"><path d="M 790 347 L 931.105469 347 L 931.105469 549 L 790 549 Z M 790 347 " clip-rule="nonzero"/></clipPath><clipPath id="ea65af91bd"><path d="M 569 25.34375 L 912 25.34375 L 912 227 L 569 227 Z M 569 25.34375 " clip-rule="nonzero"/></clipPath><mask id="6095deeb11"><g filter="url(#88adeae85c)"><rect x="-144" width="1728" fill="#000000" y="-80.999999" height="971.999992" fill-opacity="0.25"/></g></mask><clipPath id="dac0efe154"><path d="M 0.28125 0 L 20.679688 0 L 20.679688 20.398438 L 0.28125 20.398438 Z M 0.28125 0 " clip-rule="nonzero"/></clipPath><clipPath id="3e44791b4a"><rect x="0" width="21" y="0" height="21"/></clipPath><mask id="9abe1c334e"><g filter="url(#88adeae85c)"><rect x="-144" width="1728" fill="#000000" y="-80.999999" height="971.999992" fill-opacity="0.25"/></g></mask><clipPath id="0137a25614"><path d="M 0.359375 0.160156 L 60.839844 0.160156 L 60.839844 40.480469 L 0.359375 40.480469 Z M 0.359375 0.160156 " clip-rule="nonzero"/></clipPath><clipPath id="3ae5b61734"><rect x="0" width="61" y="0" height="41"/></clipPath><mask id="b2597ca99e"><g filter="url(#88adeae85c)"><rect x="-144" width="1728" fill="#000000" y="-80.999999" height="971.999992" fill-opacity="0.25"/></g></mask><clipPath id="21c6a76f1b"><path d="M 0.199219 0 L 20.601562 0 L 20.601562 20.398438 L 0.199219 20.398438 Z M 0.199219 0 " clip-rule="nonzero"/></clipPath><clipPath id="6f6cc8d043"><rect x="0" width="21" y="0" height="21"/></clipPath><mask id="07cbbd8639"><g filter="url(#88adeae85c)"><rect x="-144" width="1728" fill="#000000" y="-80.999999" height="971.999992" fill-opacity="0.25"/></g></mask><clipPath id="56f96c1096"><path d="M 0.199219 0.078125 L 20.601562 0.078125 L 20.601562 20.480469 L 0.199219 20.480469 Z M 0.199219 0.078125 " clip-rule="nonzero"/></clipPath><clipPath id="e744e45299"><rect x="0" width="21" y="0" height="21"/></clipPath><mask id="b033406b61"><g filter="url(#88adeae85c)"><rect x="-144" width="1728" fill="#000000" y="-80.999999" height="971.999992" fill-opacity="0.25"/></g></mask><clipPath id="6f5e0ea6cb"><path d="M 0.441406 0.761719 L 20.839844 0.761719 L 20.839844 20.921875 L 0.441406 20.921875 Z M 0.441406 0.761719 " clip-rule="nonzero"/></clipPath><clipPath id="5ac197fbed"><rect x="0" width="21" y="0" height="21"/></clipPath><mask id="f7ed9328fa"><g filter="url(#88adeae85c)"><rect x="-144" width="1728" fill="#000000" y="-80.999999" height="971.999992" fill-opacity="0.25"/></g></mask><clipPath id="1ab545e28c"><path d="M 1 0.679688 L 21.238281 0.679688 L 21.238281 21 L 1 21 Z M 1 0.679688 " clip-rule="nonzero"/></clipPath><clipPath id="f25cdae1c8"><rect x="0" width="22" y="0" height="22"/></clipPath><mask id="dfdd06ae94"><g filter="url(#88adeae85c)"><rect x="-144" width="1728" fill="#000000" y="-80.999999" height="971.999992" fill-opacity="0.25"/></g></mask><clipPath id="728dda75fe"><path d="M 0 0.761719 L 20.398438 0.761719 L 20.398438 20.921875 L 0 20.921875 Z M 0 0.761719 " clip-rule="nonzero"/></clipPath><clipPath id="ffd01fdc4c"><rect x="0" width="21" y="0" height="21"/></clipPath><mask id="7afc34217c"><g filter="url(#88adeae85c)"><rect x="-144" width="1728" fill="#000000" y="-80.999999" height="971.999992" fill-opacity="0.25"/></g></mask><clipPath id="bb102996a4"><path d="M 0.921875 0.761719 L 21.078125 0.761719 L 21.078125 20.921875 L 0.921875 20.921875 Z M 0.921875 0.761719 " clip-rule="nonzero"/></clipPath><clipPath id="ed54ffd115"><rect x="0" width="22" y="0" height="21"/></clipPath><mask id="89196884d1"><g filter="url(#88adeae85c)"><rect x="-144" width="1728" fill="#000000" y="-80.999999" height="971.999992" fill-opacity="0.25"/></g></mask><clipPath id="6821345165"><path d="M 0 0.839844 L 20.398438 0.839844 L 20.398438 21.238281 L 0 21.238281 Z M 0 0.839844 " clip-rule="nonzero"/></clipPath><clipPath id="50ce7fd0e9"><rect x="0" width="21" y="0" height="22"/></clipPath><mask id="1f3df871fc"><g filter="url(#88adeae85c)"><rect x="-144" width="1728" fill="#000000" y="-80.999999" height="971.999992" fill-opacity="0.25"/></g></mask><clipPath id="455fd14d4d"><path d="M 0.320312 0.160156 L 40.640625 0.160156 L 40.640625 20.320312 L 0.320312 20.320312 Z M 0.320312 0.160156 " clip-rule="nonzero"/></clipPath><clipPath id="f3b09fb200"><rect x="0" width="41" y="0" height="21"/></clipPath><mask id="03509bc3e7"><g filter="url(#88adeae85c)"><rect x="-144" width="1728" fill="#000000" y="-80.999999" height="971.999992" fill-opacity="0.25"/></g></mask><clipPath id="26bb24f711"><path d="M 0.398438 0 L 40.960938 0 L 40.960938 40.320312 L 0.398438 40.320312 Z M 0.398438 0 " clip-rule="nonzero"/></clipPath><clipPath id="d022dc3e5e"><rect x="0" width="41" y="0" height="41"/></clipPath><mask id="5c65cdf1b6"><g filter="url(#88adeae85c)"><rect x="-144" width="1728" fill="#000000" y="-80.999999" height="971.999992" fill-opacity="0.25"/></g></mask><clipPath id="852dc35aad"><path d="M 0.359375 0.679688 L 20.519531 0.679688 L 20.519531 21 L 0.359375 21 Z M 0.359375 0.679688 " clip-rule="nonzero"/></clipPath><clipPath id="c9dab12fa7"><rect x="0" width="21" y="0" height="22"/></clipPath><mask id="e0bb3d42eb"><g filter="url(#88adeae85c)"><rect x="-144" width="1728" fill="#000000" y="-80.999999" height="971.999992" fill-opacity="0.25"/></g></mask><clipPath id="721278b8db"><path d="M 0.28125 0.078125 L 20.679688 0.078125 L 20.679688 20.480469 L 0.28125 20.480469 Z M 0.28125 0.078125 " clip-rule="nonzero"/></clipPath><clipPath id="0963763d16"><rect x="0" width="21" y="0" height="21"/></clipPath><mask id="af744a6228"><g filter="url(#88adeae85c)"><rect x="-144" width="1728" fill="#000000" y="-80.999999" height="971.999992" fill-opacity="0.25"/></g></mask><clipPath id="20aab3dd6a"><path d="M 0.601562 0.601562 L 21 0.601562 L 21 21 L 0.601562 21 Z M 0.601562 0.601562 " clip-rule="nonzero"/></clipPath><clipPath id="80285f5aea"><rect x="0" width="21" y="0" height="21"/></clipPath><mask id="ddd965e73b"><g filter="url(#88adeae85c)"><rect x="-144" width="1728" fill="#000000" y="-80.999999" height="971.999992" fill-opacity="0.3"/></g></mask><clipPath id="8fcec44463"><path d="M 0.761719 0.121094 L 61.238281 0.121094 L 61.238281 20.519531 L 0.761719 20.519531 Z M 0.761719 0.121094 " clip-rule="nonzero"/></clipPath><clipPath id="2b3ac249ea"><rect x="0" width="62" y="0" height="21"/></clipPath><mask id="860f4adc4c"><g filter="url(#88adeae85c)"><rect x="-144" width="1728" fill="#000000" y="-80.999999" height="971.999992" fill-opacity="0.3"/></g></mask><clipPath id="7fade0b08e"><path d="M 0.601562 1 L 21 1 L 21 21.359375 L 0.601562 21.359375 Z M 0.601562 1 " clip-rule="nonzero"/></clipPath><clipPath id="f65ef38a78"><rect x="0" width="21" y="0" height="22"/></clipPath><mask id="1c72e14cd0"><g filter="url(#88adeae85c)"><rect x="-144" width="1728" fill="#000000" y="-80.999999" height="971.999992" fill-opacity="0.2"/></g></mask><clipPath id="d9f706c14d"><rect x="0" width="25" y="0" height="46"/></clipPath><mask id="7d94baad28"><g filter="url(#88adeae85c)"><rect x="-144" width="1728" fill="#000000" y="-80.999999" height="971.999992" fill-opacity="0.3"/></g></mask><clipPath id="7332584b25"><path d="M 0.28125 0.398438 L 20.679688 0.398438 L 20.679688 20.800781 L 0.28125 20.800781 Z M 0.28125 0.398438 " clip-rule="nonzero"/></clipPath><clipPath id="89d2378012"><rect x="0" width="21" y="0" height="21"/></clipPath><mask id="a917148c48"><g filter="url(#88adeae85c)"><rect x="-144" width="1728" fill="#000000" y="-80.999999" height="971.999992" fill-opacity="0.3"/></g></mask><clipPath id="427f666e08"><path d="M 0 1 L 20.398438 1 L 20.398438 21.359375 L 0 21.359375 Z M 0 1 " clip-rule="nonzero"/></clipPath><clipPath id="0060be6063"><rect x="0" width="21" y="0" height="22"/></clipPath><mask id="c321620dc1"><g filter="url(#88adeae85c)"><rect x="-144" width="1728" fill="#000000" y="-80.999999" height="971.999992" fill-opacity="0.2"/></g></mask><clipPath id="cb3696e1c1"><rect x="0" width="25" y="0" height="46"/></clipPath><mask id="29f1cb555f"><g filter="url(#88adeae85c)"><rect x="-144" width="1728" fill="#000000" y="-80.999999" height="971.999992" fill-opacity="0.3"/></g></mask><clipPath id="c9d92a92c2"><path d="M 0.320312 0.398438 L 20.71875 0.398438 L 20.71875 20.800781 L 0.320312 20.800781 Z M 0.320312 0.398438 " clip-rule="nonzero"/></clipPath><clipPath id="5f4e7518ed"><rect x="0" width="21" y="0" height="21"/></clipPath><clipPath id="53ae360d77"><path d="M 609 789 L 690 789 L 690 809.84375 L 609 809.84375 Z M 609 789 " clip-rule="nonzero"/></clipPath><clipPath id="70ba3686a7"><path d="M 750 789 L 831 789 L 831 809.84375 L 750 809.84375 Z M 750 789 " clip-rule="nonzero"/></clipPath><mask id="8212a05835"><g filter="url(#88adeae85c)"><rect x="-144" width="1728" fill="#000000" y="-80.999999" height="971.999992" fill-opacity="0.5"/></g></mask><clipPath id="82df9b2447"><path d="M 141 0.28125 L 221.640625 0.28125 L 221.640625 40.839844 L 141 40.839844 Z M 141 0.28125 " clip-rule="nonzero"/></clipPath><clipPath id="bb7164c143"><path d="M 0.359375 0.28125 L 81 0.28125 L 81 40.839844 L 0.359375 40.839844 Z M 0.359375 0.28125 " clip-rule="nonzero"/></clipPath><clipPath id="eb1bb3b23a"><rect x="0" width="222" y="0" height="41"/></clipPath><mask id="b5e8b25ee6"><g filter="url(#88adeae85c)"><rect x="-144" width="1728" fill="#000000" y="-80.999999" height="971.999992" fill-opacity="0.3"/></g></mask><clipPath id="748b0d604f"><path d="M 1 0.71875 L 41.398438 0.71875 L 41.398438 101.519531 L 1 101.519531 Z M 1 0.71875 " clip-rule="nonzero"/></clipPath><clipPath id="51e4fd874e"><rect x="0" width="42" y="0" height="102"/></clipPath><mask id="abb859a978"><g filter="url(#88adeae85c)"><rect x="-144" width="1728" fill="#000000" y="-80.999999" height="971.999992" fill-opacity="0.3"/></g></mask><clipPath id="4d077f5a69"><path d="M 0.601562 0.71875 L 41 0.71875 L 41 101.519531 L 0.601562 101.519531 Z M 0.601562 0.71875 " clip-rule="nonzero"/></clipPath><clipPath id="f8bfacfac3"><rect x="0" width="42" y="0" height="102"/></clipPath><mask id="4dd39274c1"><g filter="url(#88adeae85c)"><rect x="-144" width="1728" fill="#000000" y="-80.999999" height="971.999992" fill-opacity="0.2"/></g></mask><clipPath id="0a88aaf4bc"><path d="M 0.359375 0.640625 L 221.640625 0.640625 L 221.640625 21 L 0.359375 21 Z M 0.359375 0.640625 " clip-rule="nonzero"/></clipPath><clipPath id="5365a98818"><rect x="0" width="222" y="0" height="22"/></clipPath><clipPath id="13f3357f78"><path d="M 508.855469 467 L 529 467 L 529 549 L 508.855469 549 Z M 508.855469 467 " clip-rule="nonzero"/></clipPath><clipPath id="4fae92bff0"><path d="M 508.855469 548 L 529 548 L 529 589 L 508.855469 589 Z M 508.855469 548 " clip-rule="nonzero"/></clipPath><mask id="2d63ec2c62"><g filter="url(#88adeae85c)"><rect x="-144" width="1728" fill="#000000" y="-80.999999" height="971.999992" fill-opacity="0.25"/></g></mask><clipPath id="711f8709ca"><path d="M 1 0.160156 L 21.28125 0.160156 L 21.28125 20.558594 L 1 20.558594 Z M 1 0.160156 " clip-rule="nonzero"/></clipPath><clipPath id="1b4a96ee51"><rect x="0" width="22" y="0" height="21"/></clipPath><mask id="62598df7b9"><g filter="url(#88adeae85c)"><rect x="-144" width="1728" fill="#000000" y="-80.999999" height="971.999992" fill-opacity="0.25"/></g></mask><clipPath id="86351165ee"><path d="M 0.71875 0.160156 L 21 0.160156 L 21 20.558594 L 0.71875 20.558594 Z M 0.71875 0.160156 " clip-rule="nonzero"/></clipPath><clipPath id="fce406f17f"><rect x="0" width="22" y="0" height="21"/></clipPath><clipPath id="b981920142"><path d="M 729 25.34375 L 791 25.34375 L 791 46 L 729 46 Z M 729 25.34375 " clip-rule="nonzero"/></clipPath><mask id="74ed7e93cf"><g filter="url(#88adeae85c)"><rect x="-144" width="1728" fill="#000000" y="-80.999999" height="971.999992" fill-opacity="0.5"/></g></mask><clipPath id="fa5f20747d"><path d="M 1 0.441406 L 61.558594 0.441406 L 61.558594 20.839844 L 1 20.839844 Z M 1 0.441406 " clip-rule="nonzero"/></clipPath><clipPath id="5abbe6fc4a"><rect x="0" width="62" y="0" height="21"/></clipPath><mask id="7cf74a0208"><g filter="url(#88adeae85c)"><rect x="-144" width="1728" fill="#000000" y="-80.999999" height="971.999992" fill-opacity="0.5"/></g></mask><clipPath id="b678c5caf1"><path d="M 0.0390625 0.238281 L 40.601562 0.238281 L 40.601562 20.640625 L 0.0390625 20.640625 Z M 0.0390625 0.238281 " clip-rule="nonzero"/></clipPath><clipPath id="4cff68f7e3"><rect x="0" width="41" y="0" height="21"/></clipPath><mask id="f6424b2321"><g filter="url(#88adeae85c)"><rect x="-144" width="1728" fill="#000000" y="-80.999999" height="971.999992" fill-opacity="0.5"/></g></mask><clipPath id="09144dd95b"><path d="M 0.359375 0.679688 L 60.839844 0.679688 L 60.839844 61.398438 L 0.359375 61.398438 Z M 0.359375 0.679688 " clip-rule="nonzero"/></clipPath><clipPath id="b3748e18d6"><rect x="0" width="61" y="0" height="62"/></clipPath><mask id="86573622f1"><g filter="url(#88adeae85c)"><rect x="-144" width="1728" fill="#000000" y="-80.999999" height="971.999992" fill-opacity="0.5"/></g></mask><clipPath id="960d660cb2"><path d="M 0.160156 0.679688 L 60.640625 0.679688 L 60.640625 61.398438 L 0.160156 61.398438 Z M 0.160156 0.679688 " clip-rule="nonzero"/></clipPath><clipPath id="ef4bd95809"><rect x="0" width="61" y="0" height="62"/></clipPath><mask id="7bc4564ea2"><g filter="url(#88adeae85c)"><rect x="-144" width="1728" fill="#000000" y="-80.999999" height="971.999992" fill-opacity="0.5"/></g></mask><clipPath id="6e36fd1182"><path d="M 0.601562 0.761719 L 121.558594 0.761719 L 121.558594 141.640625 L 0.601562 141.640625 Z M 0.601562 0.761719 " clip-rule="nonzero"/></clipPath><clipPath id="e68d8c1d70"><rect x="0" width="122" y="0" height="142"/></clipPath><mask id="31b14a378e"><g filter="url(#88adeae85c)"><rect x="-144" width="1728" fill="#000000" y="-80.999999" height="971.999992" fill-opacity="0.5"/></g></mask><clipPath id="11923b8b88"><path d="M 0.320312 0.601562 L 40.640625 0.601562 L 40.640625 21 L 0.320312 21 Z M 0.320312 0.601562 " clip-rule="nonzero"/></clipPath><clipPath id="7c5e5a9826"><rect x="0" width="41" y="0" height="21"/></clipPath><mask id="0a88439fa6"><g filter="url(#88adeae85c)"><rect x="-144" width="1728" fill="#000000" y="-80.999999" height="971.999992" fill-opacity="0.5"/></g></mask><clipPath id="81b92c5741"><path d="M 0.398438 0.761719 L 20.800781 0.761719 L 20.800781 20.921875 L 0.398438 20.921875 Z M 0.398438 0.761719 " clip-rule="nonzero"/></clipPath><clipPath id="f8213c9395"><rect x="0" width="21" y="0" height="21"/></clipPath><mask id="8fb89d21a3"><g filter="url(#88adeae85c)"><rect x="-144" width="1728" fill="#000000" y="-80.999999" height="971.999992" fill-opacity="0.5"/></g></mask><clipPath id="42eeacca7c"><path d="M 0.398438 0.679688 L 81.039062 0.679688 L 81.039062 141.800781 L 0.398438 141.800781 Z M 0.398438 0.679688 " clip-rule="nonzero"/></clipPath><clipPath id="81033e9836"><rect x="0" width="82" y="0" height="142"/></clipPath><mask id="e7f01e5e0a"><g filter="url(#88adeae85c)"><rect x="-144" width="1728" fill="#000000" y="-80.999999" height="971.999992" fill-opacity="0.5"/></g></mask><clipPath id="64ddc7bd02"><path d="M 1 0.28125 L 21.238281 0.28125 L 21.238281 20.441406 L 1 20.441406 Z M 1 0.28125 " clip-rule="nonzero"/></clipPath><clipPath id="8e30c84436"><rect x="0" width="22" y="0" height="21"/></clipPath><mask id="9af9bbaeb7"><g filter="url(#88adeae85c)"><rect x="-144" width="1728" fill="#000000" y="-80.999999" height="971.999992" fill-opacity="0.5"/></g></mask><clipPath id="cfe068a635"><path d="M 0.761719 0.28125 L 21 0.28125 L 21 20.441406 L 0.761719 20.441406 Z M 0.761719 0.28125 " clip-rule="nonzero"/></clipPath><clipPath id="00f9acfa06"><rect x="0" width="22" y="0" height="21"/></clipPath><mask id="e2287dbc16"><g filter="url(#88adeae85c)"><rect x="-144" width="1728" fill="#000000" y="-80.999999" height="971.999992" fill-opacity="0.5"/></g></mask><clipPath id="cb4e2c7b73"><path d="M 0.480469 0.71875 L 20.640625 0.71875 L 20.640625 101.519531 L 0.480469 101.519531 Z M 0.480469 0.71875 " clip-rule="nonzero"/></clipPath><clipPath id="f6460c0045"><rect x="0" width="21" y="0" height="102"/></clipPath><mask id="27cba1659a"><g filter="url(#88adeae85c)"><rect x="-144" width="1728" fill="#000000" y="-80.999999" height="971.999992" fill-opacity="0.5"/></g></mask><clipPath id="f984662a42"><path d="M 0.0390625 0.320312 L 40.601562 0.320312 L 40.601562 20.71875 L 0.0390625 20.71875 Z M 0.0390625 0.320312 " clip-rule="nonzero"/></clipPath><clipPath id="34ae204a2a"><rect x="0" width="41" y="0" height="21"/></clipPath><mask id="b7c9a7ff05"><g filter="url(#88adeae85c)"><rect x="-144" width="1728" fill="#000000" y="-80.999999" height="971.999992" fill-opacity="0.5"/></g></mask><clipPath id="dc8b11ab4a"><path d="M 0.398438 0.320312 L 81.039062 0.320312 L 81.039062 80.960938 L 0.398438 80.960938 Z M 0.398438 0.320312 " clip-rule="nonzero"/></clipPath><clipPath id="eec95ca248"><rect x="0" width="82" y="0" height="81"/></clipPath><mask id="f9d5c365ca"><g filter="url(#88adeae85c)"><rect x="-144" width="1728" fill="#000000" y="-80.999999" height="971.999992" fill-opacity="0.5"/></g></mask><clipPath id="2b09189ebc"><path d="M 0.199219 0.359375 L 20.601562 0.359375 L 20.601562 101.160156 L 0.199219 101.160156 Z M 0.199219 0.359375 " clip-rule="nonzero"/></clipPath><clipPath id="cbac264b0c"><rect x="0" width="21" y="0" height="102"/></clipPath><mask id="fe1a532080"><g filter="url(#88adeae85c)"><rect x="-144" width="1728" fill="#000000" y="-80.999999" height="971.999992" fill-opacity="0.5"/></g></mask><clipPath id="49bfc8defd"><path d="M 0.398438 0.359375 L 20.800781 0.359375 L 20.800781 101.160156 L 0.398438 101.160156 Z M 0.398438 0.359375 " clip-rule="nonzero"/></clipPath><clipPath id="3fe5dfb271"><rect x="0" width="21" y="0" height="102"/></clipPath><mask id="b0c402a3f5"><g filter="url(#88adeae85c)"><rect x="-144" width="1728" fill="#000000" y="-80.999999" height="971.999992" fill-opacity="0.5"/></g></mask><clipPath id="32498394be"><path d="M 0.359375 0.199219 L 20.519531 0.199219 L 20.519531 20.601562 L 0.359375 20.601562 Z M 0.359375 0.199219 " clip-rule="nonzero"/></clipPath><clipPath id="ec3597f62d"><rect x="0" width="21" y="0" height="21"/></clipPath><mask id="0bf594d880"><g filter="url(#88adeae85c)"><rect x="-144" width="1728" fill="#000000" y="-80.999999" height="971.999992" fill-opacity="0.5"/></g></mask><clipPath id="32aa45dbd6"><path d="M 0.480469 0.199219 L 20.640625 0.199219 L 20.640625 20.601562 L 0.480469 20.601562 Z M 0.480469 0.199219 " clip-rule="nonzero"/></clipPath><clipPath id="92d9a670b2"><rect x="0" width="21" y="0" height="21"/></clipPath><mask id="396b1420cb"><g filter="url(#88adeae85c)"><rect x="-144" width="1728" fill="#000000" y="-80.999999" height="971.999992" fill-opacity="0.2"/></g></mask><clipPath id="ca5fe8e797"><path d="M 0.359375 1 L 20.519531 1 L 20.519531 101.71875 L 0.359375 101.71875 Z M 0.359375 1 " clip-rule="nonzero"/></clipPath><clipPath id="831f7efbc3"><rect x="0" width="21" y="0" height="102"/></clipPath><mask id="e9b5b3bb2b"><g filter="url(#88adeae85c)"><rect x="-144" width="1728" fill="#000000" y="-80.999999" height="971.999992" fill-opacity="0.2"/></g></mask><clipPath id="f5a3b4a5d9"><path d="M 0.480469 1 L 20.640625 1 L 20.640625 101.71875 L 0.480469 101.71875 Z M 0.480469 1 " clip-rule="nonzero"/></clipPath><clipPath id="ca440b9b1b"><rect x="0" width="21" y="0" height="102"/></clipPath><mask id="6cd5400342"><g filter="url(#88adeae85c)"><rect x="-144" width="1728" fill="#000000" y="-80.999999" height="971.999992" fill-opacity="0.2"/></g></mask><clipPath id="83115a3f9b"><path d="M 0.28125 0.359375 L 20.679688 0.359375 L 20.679688 101.160156 L 0.28125 101.160156 Z M 0.28125 0.359375 " clip-rule="nonzero"/></clipPath><clipPath id="363cf06caa"><rect x="0" width="21" y="0" height="102"/></clipPath><mask id="71f8a5f3a5"><g filter="url(#88adeae85c)"><rect x="-144" width="1728" fill="#000000" y="-80.999999" height="971.999992" fill-opacity="0.2"/></g></mask><clipPath id="7fec37fbab"><path d="M 0.320312 0.359375 L 20.71875 0.359375 L 20.71875 101.160156 L 0.320312 101.160156 Z M 0.320312 0.359375 " clip-rule="nonzero"/></clipPath><clipPath id="d1c4f369f9"><rect x="0" width="21" y="0" height="102"/></clipPath><mask id="1da884a601"><g filter="url(#88adeae85c)"><rect x="-144" width="1728" fill="#000000" y="-80.999999" height="971.999992" fill-opacity="0.2"/></g></mask><clipPath id="01aa0debe5"><path d="M 0.441406 0.199219 L 41 0.199219 L 41 20.601562 L 0.441406 20.601562 Z M 0.441406 0.199219 " clip-rule="nonzero"/></clipPath><clipPath id="22ff945153"><rect x="0" width="41" y="0" height="21"/></clipPath><mask id="42f0f280c4"><g filter="url(#88adeae85c)"><rect x="-144" width="1728" fill="#000000" y="-80.999999" height="971.999992" fill-opacity="0.2"/></g></mask><clipPath id="a4bde4c053"><path d="M 0 0.199219 L 40.558594 0.199219 L 40.558594 20.601562 L 0 20.601562 Z M 0 0.199219 " clip-rule="nonzero"/></clipPath><clipPath id="f4cc665ee3"><rect x="0" width="41" y="0" height="21"/></clipPath><mask id="a7744d4508"><g filter="url(#88adeae85c)"><rect x="-144" width="1728" fill="#000000" y="-80.999999" height="971.999992" fill-opacity="0.3"/></g></mask><clipPath id="3eecdf5f74"><path d="M 0.761719 0.359375 L 61.238281 0.359375 L 61.238281 221.878906 L 0.761719 221.878906 Z M 0.761719 0.359375 " clip-rule="nonzero"/></clipPath><clipPath id="785ea35920"><rect x="0" width="62" y="0" height="222"/></clipPath><clipPath id="75d51758e6"><path d="M 508.855469 528 L 610 528 L 610 549 L 508.855469 549 Z M 508.855469 528 " clip-rule="nonzero"/></clipPath><mask id="8d10a179bd"><g filter="url(#88adeae85c)"><rect x="-144" width="1728" fill="#000000" y="-80.999999" height="971.999992" fill-opacity="0.3"/></g></mask><clipPath id="79395f7f51"><path d="M 0.855469 0.238281 L 101.601562 0.238281 L 101.601562 20.398438 L 0.855469 20.398438 Z M 0.855469 0.238281 " clip-rule="nonzero"/></clipPath><clipPath id="7843c44204"><rect x="0" width="102" y="0" height="21"/></clipPath><clipPath id="6c708949bf"><path d="M 790 347 L 931.105469 347 L 931.105469 589 L 790 589 Z M 790 347 " clip-rule="nonzero"/></clipPath><mask id="a42e30c3a3"><g filter="url(#88adeae85c)"><rect x="-144" width="1728" fill="#000000" y="-80.999999" height="971.999992" fill-opacity="0.3"/></g></mask><clipPath id="eb45798241"><path d="M 0.320312 0.28125 L 41 0.28125 L 41 21 L 0.320312 21 Z M 0.320312 0.28125 " clip-rule="nonzero"/></clipPath><clipPath id="83428b1b6c"><path d="M 60 80 L 141.105469 80 L 141.105469 241.71875 L 60 241.71875 Z M 60 80 " clip-rule="nonzero"/></clipPath><clipPath id="7e2e9f1964"><rect x="0" width="142" y="0" height="242"/></clipPath><mask id="07219c0ce1"><g filter="url(#88adeae85c)"><rect x="-144" width="1728" fill="#000000" y="-80.999999" height="971.999992" fill-opacity="0.3"/></g></mask><clipPath id="40c344b36e"><path d="M 0.359375 0.078125 L 221.640625 0.078125 L 221.640625 100.878906 L 0.359375 100.878906 Z M 0.359375 0.078125 " clip-rule="nonzero"/></clipPath><clipPath id="0b27cc8050"><rect x="0" width="222" y="0" height="101"/></clipPath><mask id="6cbd307105"><g filter="url(#88adeae85c)"><rect x="-144" width="1728" fill="#000000" y="-80.999999" height="971.999992" fill-opacity="0.5"/></g></mask><clipPath id="455562cea6"><path d="M 60 0.398438 L 100.960938 0.398438 L 100.960938 61 L 60 61 Z M 60 0.398438 " clip-rule="nonzero"/></clipPath><clipPath id="5bc071a342"><path d="M 0.160156 101 L 41 101 L 41 121.359375 L 0.160156 121.359375 Z M 0.160156 101 " clip-rule="nonzero"/></clipPath><clipPath id="d57eb4596b"><rect x="0" width="101" y="0" height="122"/></clipPath><clipPath id="38ba2efd43"><path d="M 669 25.34375 L 731 25.34375 L 731 46 L 669 46 Z M 669 25.34375 " clip-rule="nonzero"/></clipPath></defs><g clip-path="url(#91036cac20)"><path fill="#160059" d="M 911.03125 467.941406 L 911.03125 427.722656 L 890.921875 427.722656 L 890.921875 387.503906 L 870.8125 387.503906 L 870.8125 367.394531 L 830.597656 367.394531 L 830.597656 347.289062 L 770.269531 347.289062 L 770.269531 327.179688 L 810.488281 327.179688 L 810.488281 307.070312 L 830.597656 307.070312 L 830.597656 266.851562 L 850.707031 266.851562 L 850.707031 246.742188 L 870.8125 246.742188 L 870.8125 226.632812 L 890.921875 226.632812 L 890.921875 206.527344 L 911.03125 206.527344 L 911.03125 186.417969 L 890.921875 186.417969 L 890.921875 166.308594 L 911.03125 166.308594 L 911.03125 146.199219 L 890.921875 146.199219 L 890.921875 105.980469 L 870.8125 105.980469 L 870.8125 85.871094 L 850.707031 85.871094 L 850.707031 65.765625 L 830.597656 65.765625 L 830.597656 45.65625 L 790.378906 45.65625 L 790.378906 25.546875 L 669.726562 25.546875 L 669.726562 45.65625 L 609.398438 45.65625 L 609.398438 85.871094 L 589.289062 85.871094 L 589.289062 105.980469 L 569.183594 105.980469 L 569.183594 186.417969 L 549.074219 186.417969 L 549.074219 206.527344 L 569.183594 206.527344 L 569.183594 226.632812 L 589.289062 226.632812 L 589.289062 266.851562 L 609.398438 266.851562 L 609.398438 307.070312 L 629.507812 307.070312 L 629.507812 327.179688 L 669.726562 327.179688 L 669.726562 347.289062 L 609.398438 347.289062 L 609.398438 367.394531 L 569.183594 367.394531 L 569.183594 387.503906 L 549.074219 387.503906 L 549.074219 427.722656 L 528.964844 427.722656 L 528.964844 467.941406 L 508.855469 467.941406 L 508.855469 588.59375 L 528.964844 588.59375 L 528.964844 608.703125 L 589.289062 608.703125 L 589.289062 648.917969 L 609.398438 648.917969 L 609.398438 749.464844 L 589.289062 749.464844 L 589.289062 789.679688 L 609.398438 789.679688 L 609.398438 809.789062 L 689.835938 809.789062 L 689.835938 789.679688 L 709.945312 789.679688 L 709.945312 749.464844 L 730.050781 749.464844 L 730.050781 789.679688 L 750.160156 789.679688 L 750.160156 809.789062 L 830.597656 809.789062 L 830.597656 789.679688 L 850.707031 789.679688 L 850.707031 749.464844 L 830.597656 749.464844 L 830.597656 648.917969 L 850.707031 648.917969 L 850.707031 608.703125 L 911.03125 608.703125 L 911.03125 588.59375 L 931.140625 588.59375 L 931.140625 467.941406 Z M 911.03125 467.941406 " fill-opacity="1" fill-rule="nonzero"/></g><path fill="#f79277" d="M 850.707031 246.742188 L 870.8125 246.742188 L 870.8125 226.632812 L 850.707031 226.632812 L 850.707031 186.417969 L 709.945312 186.417969 L 709.945312 166.308594 L 689.835938 166.308594 L 689.835938 206.527344 L 609.398438 206.527344 L 609.398438 266.851562 L 629.507812 266.851562 L 629.507812 307.070312 L 669.726562 307.070312 L 669.726562 327.179688 L 689.835938 327.179688 L 689.835938 367.394531 L 750.160156 367.394531 L 750.160156 327.179688 L 810.488281 327.179688 L 810.488281 307.070312 L 830.597656 307.070312 L 830.597656 266.851562 L 850.707031 266.851562 Z M 850.707031 246.742188 " fill-opacity="1" fill-rule="nonzero"/><path fill="#f79277" d="M 528.964844 548.375 L 589.289062 548.375 L 589.289062 588.59375 L 528.964844 588.59375 Z M 528.964844 548.375 " fill-opacity="1" fill-rule="nonzero"/><g clip-path="url(#1323321196)"><path fill="#f79277" d="M 850.707031 548.375 L 850.707031 608.703125 L 911.03125 608.703125 L 911.03125 588.59375 L 931.140625 588.59375 L 931.140625 548.375 Z M 850.707031 548.375 " fill-opacity="1" fill-rule="nonzero"/></g><path fill="#ff4800" d="M 810.488281 608.703125 L 609.398438 608.703125 L 609.398438 749.464844 L 830.597656 749.464844 L 830.597656 648.917969 L 850.707031 648.917969 L 850.707031 608.703125 Z M 810.488281 608.703125 " fill-opacity="1" fill-rule="nonzero"/><path fill="#ff4800" d="M 609.398438 387.503906 L 629.507812 387.503906 L 629.507812 367.394531 L 589.289062 367.394531 L 589.289062 387.503906 L 569.183594 387.503906 L 569.183594 427.722656 L 549.074219 427.722656 L 549.074219 488.050781 L 528.964844 488.050781 L 528.964844 548.375 L 589.289062 548.375 L 589.289062 488.050781 L 609.398438 488.050781 Z M 609.398438 387.503906 " fill-opacity="1" fill-rule="nonzero"/><g clip-path="url(#c18d3598e8)"><path fill="#ff4800" d="M 911.03125 467.941406 L 911.03125 427.722656 L 890.921875 427.722656 L 890.921875 387.503906 L 870.8125 387.503906 L 870.8125 367.394531 L 830.597656 367.394531 L 830.597656 347.289062 L 790.378906 347.289062 L 790.378906 367.394531 L 810.488281 367.394531 L 810.488281 387.503906 L 830.597656 387.503906 L 830.597656 488.050781 L 850.707031 488.050781 L 850.707031 548.375 L 931.140625 548.375 L 931.140625 467.941406 Z M 911.03125 467.941406 " fill-opacity="1" fill-rule="nonzero"/></g><g clip-path="url(#ea65af91bd)"><path fill="#c1ff72" d="M 911.03125 166.308594 L 911.03125 146.199219 L 890.921875 146.199219 L 890.921875 105.980469 L 870.8125 105.980469 L 870.8125 85.871094 L 850.707031 85.871094 L 850.707031 65.765625 L 830.597656 65.765625 L 830.597656 45.65625 L 790.378906 45.65625 L 790.378906 25.546875 L 689.835938 25.546875 L 689.835938 45.65625 L 669.726562 45.65625 L 669.726562 65.765625 L 629.507812 65.765625 L 629.507812 85.871094 L 609.398438 85.871094 L 609.398438 105.980469 L 589.289062 105.980469 L 589.289062 186.417969 L 569.183594 186.417969 L 569.183594 206.527344 L 609.398438 206.527344 L 609.398438 186.417969 L 669.726562 186.417969 L 669.726562 166.308594 L 689.835938 166.308594 L 689.835938 146.199219 L 709.945312 146.199219 L 709.945312 166.308594 L 750.160156 166.308594 L 750.160156 186.417969 L 830.597656 186.417969 L 830.597656 206.527344 L 850.707031 206.527344 L 850.707031 226.632812 L 890.921875 226.632812 L 890.921875 206.527344 L 911.03125 206.527344 L 911.03125 186.417969 L 890.921875 186.417969 L 890.921875 166.308594 Z M 911.03125 166.308594 " fill-opacity="1" fill-rule="nonzero"/></g><path fill="#c1ff72" d="M 609.398438 749.464844 L 689.835938 749.464844 L 689.835938 789.679688 L 609.398438 789.679688 Z M 609.398438 749.464844 " fill-opacity="1" fill-rule="nonzero"/><path fill="#c1ff72" d="M 750.160156 749.464844 L 830.597656 749.464844 L 830.597656 789.679688 L 750.160156 789.679688 Z M 750.160156 749.464844 " fill-opacity="1" fill-rule="nonzero"/><path fill="#160059" d="M 609.398438 45.65625 L 669.726562 45.65625 L 669.726562 65.765625 L 609.398438 65.765625 Z M 609.398438 45.65625 " fill-opacity="1" fill-rule="nonzero"/><path fill="#160059" d="M 609.398438 65.765625 L 629.507812 65.765625 L 629.507812 85.871094 L 609.398438 85.871094 Z M 609.398438 65.765625 " fill-opacity="1" fill-rule="nonzero"/><path fill="#160059" d="M 589.289062 85.871094 L 609.398438 85.871094 L 609.398438 105.980469 L 589.289062 105.980469 Z M 589.289062 85.871094 " fill-opacity="1" fill-rule="nonzero"/><path fill="#160059" d="M 569.183594 105.980469 L 589.289062 105.980469 L 589.289062 186.417969 L 569.183594 186.417969 Z M 569.183594 105.980469 " fill-opacity="1" fill-rule="nonzero"/><path fill="#160059" d="M 549.074219 186.417969 L 569.183594 186.417969 L 569.183594 206.527344 L 549.074219 206.527344 Z M 549.074219 186.417969 " fill-opacity="1" fill-rule="nonzero"/><path fill="#160059" d="M 569.183594 206.527344 L 589.289062 206.527344 L 589.289062 226.632812 L 569.183594 226.632812 Z M 569.183594 206.527344 " fill-opacity="1" fill-rule="nonzero"/><path fill="#160059" d="M 589.289062 226.632812 L 609.398438 226.632812 L 609.398438 266.851562 L 589.289062 266.851562 Z M 589.289062 226.632812 " fill-opacity="1" fill-rule="nonzero"/><path fill="#160059" d="M 589.289062 206.527344 L 609.398438 206.527344 L 609.398438 226.632812 L 589.289062 226.632812 Z M 589.289062 206.527344 " fill-opacity="1" fill-rule="nonzero"/><path fill="#160059" d="M 689.835938 146.199219 L 709.945312 146.199219 L 709.945312 166.308594 L 689.835938 166.308594 Z M 689.835938 146.199219 " fill-opacity="1" fill-rule="nonzero"/><path fill="#160059" d="M 709.945312 166.308594 L 750.160156 166.308594 L 750.160156 186.417969 L 709.945312 186.417969 Z M 709.945312 166.308594 " fill-opacity="1" fill-rule="nonzero"/><g mask="url(#6095deeb11)"><g transform="matrix(1, 0, 0, 1, 629, 126)"><g clip-path="url(#3e44791b4a)"><g clip-path="url(#dac0efe154)"><path fill="#160059" d="M 0.507812 0.0898438 L 20.617188 0.0898438 L 20.617188 20.199219 L 0.507812 20.199219 Z M 0.507812 0.0898438 " fill-opacity="1" fill-rule="nonzero"/></g></g></g></g><g mask="url(#9abe1c334e)"><g transform="matrix(1, 0, 0, 1, 609, 146)"><g clip-path="url(#3ae5b61734)"><g clip-path="url(#0137a25614)"><path fill="#160059" d="M 20.507812 0.199219 L 0.398438 0.199219 L 0.398438 20.308594 L 20.507812 20.308594 L 20.507812 40.417969 L 60.726562 40.417969 L 60.726562 0.199219 Z M 20.507812 0.199219 " fill-opacity="1" fill-rule="nonzero"/></g></g></g></g><g mask="url(#b2597ca99e)"><g transform="matrix(1, 0, 0, 1, 589, 126)"><g clip-path="url(#6f6cc8d043)"><g clip-path="url(#21c6a76f1b)"><path fill="#160059" d="M 0.289062 0.0898438 L 20.398438 0.0898438 L 20.398438 20.199219 L 0.289062 20.199219 Z M 0.289062 0.0898438 " fill-opacity="1" fill-rule="nonzero"/></g></g></g></g><g mask="url(#07cbbd8639)"><g transform="matrix(1, 0, 0, 1, 589, 166)"><g clip-path="url(#e744e45299)"><g clip-path="url(#56f96c1096)"><path fill="#160059" d="M 0.289062 0.308594 L 20.398438 0.308594 L 20.398438 20.417969 L 0.289062 20.417969 Z M 0.289062 0.308594 " fill-opacity="1" fill-rule="nonzero"/></g></g></g></g><g mask="url(#b033406b61)"><g transform="matrix(1, 0, 0, 1, 649, 65)"><g clip-path="url(#5ac197fbed)"><g clip-path="url(#6f5e0ea6cb)"><path fill="#160059" d="M 0.617188 0.765625 L 20.726562 0.765625 L 20.726562 20.871094 L 0.617188 20.871094 Z M 0.617188 0.765625 " fill-opacity="1" fill-rule="nonzero"/></g></g></g></g><g mask="url(#f7ed9328fa)"><g transform="matrix(1, 0, 0, 1, 729, 85)"><g clip-path="url(#f25cdae1c8)"><g clip-path="url(#1ab545e28c)"><path fill="#160059" d="M 1.050781 0.871094 L 21.160156 0.871094 L 21.160156 20.980469 L 1.050781 20.980469 Z M 1.050781 0.871094 " fill-opacity="1" fill-rule="nonzero"/></g></g></g></g><g mask="url(#dfdd06ae94)"><g transform="matrix(1, 0, 0, 1, 750, 65)"><g clip-path="url(#ffd01fdc4c)"><g clip-path="url(#728dda75fe)"><path fill="#160059" d="M 0.160156 0.765625 L 20.269531 0.765625 L 20.269531 20.871094 L 0.160156 20.871094 Z M 0.160156 0.765625 " fill-opacity="1" fill-rule="nonzero"/></g></g></g></g><g mask="url(#7afc34217c)"><g transform="matrix(1, 0, 0, 1, 709, 65)"><g clip-path="url(#ed54ffd115)"><g clip-path="url(#bb102996a4)"><path fill="#160059" d="M 0.945312 0.765625 L 21.050781 0.765625 L 21.050781 20.871094 L 0.945312 20.871094 Z M 0.945312 0.765625 " fill-opacity="1" fill-rule="nonzero"/></g></g></g></g><g mask="url(#89196884d1)"><g transform="matrix(1, 0, 0, 1, 750, 105)"><g clip-path="url(#50ce7fd0e9)"><g clip-path="url(#6821345165)"><path fill="#160059" d="M 0.160156 0.980469 L 20.269531 0.980469 L 20.269531 21.089844 L 0.160156 21.089844 Z M 0.160156 0.980469 " fill-opacity="1" fill-rule="nonzero"/></g></g></g></g><g mask="url(#1f3df871fc)"><g transform="matrix(1, 0, 0, 1, 790, 146)"><g clip-path="url(#f3b09fb200)"><g clip-path="url(#455fd14d4d)"><path fill="#160059" d="M 20.488281 0.199219 L 0.378906 0.199219 L 0.378906 20.308594 L 40.597656 20.308594 L 40.597656 0.199219 Z M 20.488281 0.199219 " fill-opacity="1" fill-rule="nonzero"/></g></g></g></g><g mask="url(#03509bc3e7)"><g transform="matrix(1, 0, 0, 1, 830, 126)"><g clip-path="url(#d022dc3e5e)"><g clip-path="url(#26bb24f711)"><path fill="#160059" d="M 20.707031 0.0898438 L 0.597656 0.0898438 L 0.597656 20.199219 L 20.707031 20.199219 L 20.707031 40.308594 L 40.8125 40.308594 L 40.8125 0.0898438 Z M 20.707031 0.0898438 " fill-opacity="1" fill-rule="nonzero"/></g></g></g></g><g mask="url(#5c65cdf1b6)"><g transform="matrix(1, 0, 0, 1, 609, 85)"><g clip-path="url(#c9dab12fa7)"><g clip-path="url(#852dc35aad)"><path fill="#160059" d="M 0.398438 0.871094 L 20.507812 0.871094 L 20.507812 20.980469 L 0.398438 20.980469 Z M 0.398438 0.871094 " fill-opacity="1" fill-rule="nonzero"/></g></g></g></g><g mask="url(#e0bb3d42eb)"><g transform="matrix(1, 0, 0, 1, 629, 166)"><g clip-path="url(#0963763d16)"><g clip-path="url(#721278b8db)"><path fill="#160059" d="M 0.507812 0.308594 L 20.617188 0.308594 L 20.617188 20.417969 L 0.507812 20.417969 Z M 0.507812 0.308594 " fill-opacity="1" fill-rule="nonzero"/></g></g></g></g><g mask="url(#af744a6228)"><g transform="matrix(1, 0, 0, 1, 669, 45)"><g clip-path="url(#80285f5aea)"><g clip-path="url(#20aab3dd6a)"><path fill="#160059" d="M 0.726562 0.65625 L 20.835938 0.65625 L 20.835938 20.765625 L 0.726562 20.765625 Z M 0.726562 0.65625 " fill-opacity="1" fill-rule="nonzero"/></g></g></g></g><path fill="#160059" d="M 609.398438 266.851562 L 629.507812 266.851562 L 629.507812 286.960938 L 609.398438 286.960938 Z M 609.398438 266.851562 " fill-opacity="1" fill-rule="nonzero"/><path fill="#160059" d="M 629.507812 307.070312 L 669.726562 307.070312 L 669.726562 327.179688 L 629.507812 327.179688 Z M 629.507812 307.070312 " fill-opacity="1" fill-rule="nonzero"/><path fill="#160059" d="M 669.726562 327.179688 L 689.835938 327.179688 L 689.835938 347.289062 L 669.726562 347.289062 Z M 669.726562 327.179688 " fill-opacity="1" fill-rule="nonzero"/><path fill="#160059" d="M 750.160156 327.179688 L 770.269531 327.179688 L 770.269531 347.289062 L 750.160156 347.289062 Z M 750.160156 327.179688 " fill-opacity="1" fill-rule="nonzero"/><path fill="#160059" d="M 609.398438 286.960938 L 629.507812 286.960938 L 629.507812 307.070312 L 609.398438 307.070312 Z M 609.398438 286.960938 " fill-opacity="1" fill-rule="nonzero"/><path fill="#160059" d="M 669.726562 186.417969 L 609.398438 186.417969 L 609.398438 206.527344 L 649.617188 206.527344 L 649.617188 226.632812 L 669.726562 226.632812 L 669.726562 266.851562 L 689.835938 266.851562 L 689.835938 166.308594 L 669.726562 166.308594 Z M 669.726562 186.417969 " fill-opacity="1" fill-rule="nonzero"/><path fill="#160059" d="M 750.160156 186.417969 L 750.160156 266.851562 L 770.269531 266.851562 L 770.269531 226.632812 L 790.378906 226.632812 L 790.378906 206.527344 L 830.597656 206.527344 L 830.597656 186.417969 Z M 750.160156 186.417969 " fill-opacity="1" fill-rule="nonzero"/><path fill="#160059" d="M 790.378906 226.632812 L 810.488281 226.632812 L 810.488281 246.742188 L 790.378906 246.742188 Z M 790.378906 226.632812 " fill-opacity="1" fill-rule="nonzero"/><path fill="#160059" d="M 629.507812 226.632812 L 649.617188 226.632812 L 649.617188 246.742188 L 629.507812 246.742188 Z M 629.507812 226.632812 " fill-opacity="1" fill-rule="nonzero"/><path fill="#552cff" d="M 669.726562 246.742188 L 689.835938 246.742188 L 689.835938 266.851562 L 669.726562 266.851562 Z M 669.726562 246.742188 " fill-opacity="1" fill-rule="nonzero"/><path fill="#552cff" d="M 750.160156 246.742188 L 770.269531 246.742188 L 770.269531 266.851562 L 750.160156 266.851562 Z M 750.160156 246.742188 " fill-opacity="1" fill-rule="nonzero"/><path fill="#160059" d="M 649.617188 347.289062 L 689.835938 347.289062 L 689.835938 367.394531 L 649.617188 367.394531 Z M 649.617188 347.289062 " fill-opacity="1" fill-rule="nonzero"/><path fill="#160059" d="M 689.835938 367.394531 L 750.160156 367.394531 L 750.160156 387.503906 L 689.835938 387.503906 Z M 689.835938 367.394531 " fill-opacity="1" fill-rule="nonzero"/><path fill="#160059" d="M 750.160156 347.289062 L 790.378906 347.289062 L 790.378906 367.394531 L 750.160156 367.394531 Z M 750.160156 347.289062 " fill-opacity="1" fill-rule="nonzero"/><path fill="#160059" d="M 589.289062 588.59375 L 850.707031 588.59375 L 850.707031 608.703125 L 589.289062 608.703125 Z M 589.289062 588.59375 " fill-opacity="1" fill-rule="nonzero"/><path fill="#160059" d="M 589.289062 488.050781 L 609.398438 488.050781 L 609.398438 648.917969 L 589.289062 648.917969 Z M 589.289062 488.050781 " fill-opacity="1" fill-rule="nonzero"/><path fill="#160059" d="M 609.398438 387.503906 L 629.507812 387.503906 L 629.507812 488.050781 L 609.398438 488.050781 Z M 609.398438 387.503906 " fill-opacity="1" fill-rule="nonzero"/><path fill="#160059" d="M 629.507812 367.394531 L 649.617188 367.394531 L 649.617188 387.503906 L 629.507812 387.503906 Z M 629.507812 367.394531 " fill-opacity="1" fill-rule="nonzero"/><path fill="#552cff" d="M 830.597656 488.050781 L 830.597656 387.503906 L 810.488281 387.503906 L 810.488281 367.394531 L 750.160156 367.394531 L 750.160156 387.503906 L 689.835938 387.503906 L 689.835938 367.394531 L 649.617188 367.394531 L 649.617188 387.503906 L 629.507812 387.503906 L 629.507812 488.050781 L 609.398438 488.050781 L 609.398438 588.59375 L 850.707031 588.59375 L 850.707031 488.050781 Z M 830.597656 488.050781 " fill-opacity="1" fill-rule="nonzero"/><path fill="#160059" d="M 790.378906 367.394531 L 810.488281 367.394531 L 810.488281 387.503906 L 790.378906 387.503906 Z M 790.378906 367.394531 " fill-opacity="1" fill-rule="nonzero"/><path fill="#160059" d="M 810.488281 387.503906 L 830.597656 387.503906 L 830.597656 488.050781 L 810.488281 488.050781 Z M 810.488281 387.503906 " fill-opacity="1" fill-rule="nonzero"/><path fill="#160059" d="M 830.597656 488.050781 L 850.707031 488.050781 L 850.707031 588.59375 L 830.597656 588.59375 Z M 830.597656 488.050781 " fill-opacity="1" fill-rule="nonzero"/><g mask="url(#ddd965e73b)"><g transform="matrix(1, 0, 0, 1, 689, 327)"><g clip-path="url(#2b3ac249ea)"><g clip-path="url(#8fcec44463)"><path fill="#160059" d="M 0.835938 0.179688 L 61.160156 0.179688 L 61.160156 20.289062 L 0.835938 20.289062 Z M 0.835938 0.179688 " fill-opacity="1" fill-rule="nonzero"/></g></g></g></g><g mask="url(#860f4adc4c)"><g transform="matrix(1, 0, 0, 1, 669, 306)"><g clip-path="url(#f65ef38a78)"><g clip-path="url(#7fade0b08e)"><path fill="#160059" d="M 0.726562 1.070312 L 20.835938 1.070312 L 20.835938 21.179688 L 0.726562 21.179688 Z M 0.726562 1.070312 " fill-opacity="1" fill-rule="nonzero"/></g></g></g></g><g mask="url(#1c72e14cd0)"><g transform="matrix(1, 0, 0, 1, 627, 264)"><g clip-path="url(#d9f706c14d)"><path fill="#160059" d="M 22.617188 2.851562 L 22.617188 43.070312 L 2.507812 43.070312 L 2.507812 2.851562 Z M 22.617188 2.851562 " fill-opacity="1" fill-rule="nonzero"/></g></g></g><g mask="url(#7d94baad28)"><g transform="matrix(1, 0, 0, 1, 629, 206)"><g clip-path="url(#89d2378012)"><g clip-path="url(#7332584b25)"><path fill="#160059" d="M 0.507812 0.527344 L 20.617188 0.527344 L 20.617188 20.632812 L 0.507812 20.632812 Z M 0.507812 0.527344 " fill-opacity="1" fill-rule="nonzero"/></g></g></g></g><g mask="url(#a917148c48)"><g transform="matrix(1, 0, 0, 1, 750, 306)"><g clip-path="url(#0060be6063)"><g clip-path="url(#427f666e08)"><path fill="#160059" d="M 0.160156 1.070312 L 20.269531 1.070312 L 20.269531 21.179688 L 0.160156 21.179688 Z M 0.160156 1.070312 " fill-opacity="1" fill-rule="nonzero"/></g></g></g></g><g mask="url(#c321620dc1)"><g transform="matrix(1, 0, 0, 1, 788, 264)"><g clip-path="url(#cb3696e1c1)"><path fill="#160059" d="M 22.488281 2.851562 L 22.488281 43.070312 L 2.378906 43.070312 L 2.378906 2.851562 Z M 22.488281 2.851562 " fill-opacity="1" fill-rule="nonzero"/></g></g></g><g mask="url(#29f1cb555f)"><g transform="matrix(1, 0, 0, 1, 790, 206)"><g clip-path="url(#5f4e7518ed)"><g clip-path="url(#c9d92a92c2)"><path fill="#160059" d="M 0.378906 0.527344 L 20.488281 0.527344 L 20.488281 20.632812 L 0.378906 20.632812 Z M 0.378906 0.527344 " fill-opacity="1" fill-rule="nonzero"/></g></g></g></g><path fill="#160059" d="M 609.398438 648.917969 L 629.507812 648.917969 L 629.507812 749.464844 L 609.398438 749.464844 Z M 609.398438 648.917969 " fill-opacity="1" fill-rule="nonzero"/><path fill="#160059" d="M 709.945312 669.027344 L 730.050781 669.027344 L 730.050781 749.464844 L 709.945312 749.464844 Z M 709.945312 669.027344 " fill-opacity="1" fill-rule="nonzero"/><path fill="#160059" d="M 689.835938 648.917969 L 750.160156 648.917969 L 750.160156 669.027344 L 689.835938 669.027344 Z M 689.835938 648.917969 " fill-opacity="1" fill-rule="nonzero"/><path fill="#160059" d="M 589.289062 749.464844 L 609.398438 749.464844 L 609.398438 789.679688 L 589.289062 789.679688 Z M 589.289062 749.464844 " fill-opacity="1" fill-rule="nonzero"/><g clip-path="url(#53ae360d77)"><path fill="#160059" d="M 609.398438 789.679688 L 689.835938 789.679688 L 689.835938 809.789062 L 609.398438 809.789062 Z M 609.398438 789.679688 " fill-opacity="1" fill-rule="nonzero"/></g><path fill="#160059" d="M 689.835938 749.464844 L 709.945312 749.464844 L 709.945312 789.679688 L 689.835938 789.679688 Z M 689.835938 749.464844 " fill-opacity="1" fill-rule="nonzero"/><path fill="#160059" d="M 730.050781 749.464844 L 750.160156 749.464844 L 750.160156 789.679688 L 730.050781 789.679688 Z M 730.050781 749.464844 " fill-opacity="1" fill-rule="nonzero"/><path fill="#160059" d="M 609.398438 729.355469 L 689.835938 729.355469 L 689.835938 749.464844 L 609.398438 749.464844 Z M 609.398438 729.355469 " fill-opacity="1" fill-rule="nonzero"/><path fill="#160059" d="M 750.160156 729.355469 L 810.488281 729.355469 L 810.488281 749.464844 L 750.160156 749.464844 Z M 750.160156 729.355469 " fill-opacity="1" fill-rule="nonzero"/><g clip-path="url(#70ba3686a7)"><path fill="#160059" d="M 750.160156 789.679688 L 830.597656 789.679688 L 830.597656 809.789062 L 750.160156 809.789062 Z M 750.160156 789.679688 " fill-opacity="1" fill-rule="nonzero"/></g><path fill="#160059" d="M 830.597656 749.464844 L 850.707031 749.464844 L 850.707031 789.679688 L 830.597656 789.679688 Z M 830.597656 749.464844 " fill-opacity="1" fill-rule="nonzero"/><g mask="url(#8212a05835)"><g transform="matrix(1, 0, 0, 1, 609, 749)"><g clip-path="url(#eb1bb3b23a)"><g clip-path="url(#82df9b2447)"><path fill="#160059" d="M 161.269531 20.574219 L 221.597656 20.574219 L 221.597656 0.464844 L 141.160156 0.464844 L 141.160156 40.679688 L 161.269531 40.679688 Z M 161.269531 20.574219 " fill-opacity="1" fill-rule="nonzero"/></g><g clip-path="url(#bb7164c143)"><path fill="#160059" d="M 60.726562 20.574219 L 60.726562 40.679688 L 80.835938 40.679688 L 80.835938 0.464844 L 0.398438 0.464844 L 0.398438 20.574219 Z M 60.726562 20.574219 " fill-opacity="1" fill-rule="nonzero"/></g></g></g></g><g mask="url(#b5e8b25ee6)"><g transform="matrix(1, 0, 0, 1, 729, 648)"><g clip-path="url(#51e4fd874e)"><g clip-path="url(#748b0d604f)"><path fill="#160059" d="M 21.160156 0.917969 L 21.160156 21.027344 L 1.050781 21.027344 L 1.050781 101.464844 L 21.160156 101.464844 L 21.160156 41.136719 L 41.269531 41.136719 L 41.269531 0.917969 Z M 21.160156 0.917969 " fill-opacity="1" fill-rule="nonzero"/></g></g></g></g><g mask="url(#abb859a978)"><g transform="matrix(1, 0, 0, 1, 669, 648)"><g clip-path="url(#f8bfacfac3)"><g clip-path="url(#4d077f5a69)"><path fill="#160059" d="M 20.835938 0.917969 L 0.726562 0.917969 L 0.726562 41.136719 L 20.835938 41.136719 L 20.835938 101.464844 L 40.945312 101.464844 L 40.945312 21.027344 L 20.835938 21.027344 Z M 20.835938 0.917969 " fill-opacity="1" fill-rule="nonzero"/></g></g></g></g><g mask="url(#4dd39274c1)"><g transform="matrix(1, 0, 0, 1, 609, 608)"><g clip-path="url(#5365a98818)"><g clip-path="url(#0a88aaf4bc)"><path fill="#160059" d="M 221.597656 0.703125 L 221.597656 20.8125 L 0.398438 20.8125 L 0.398438 0.703125 Z M 221.597656 0.703125 " fill-opacity="1" fill-rule="nonzero"/></g></g></g></g><path fill="#160059" d="M 609.398438 347.289062 L 649.617188 347.289062 L 649.617188 367.394531 L 609.398438 367.394531 Z M 609.398438 347.289062 " fill-opacity="1" fill-rule="nonzero"/><path fill="#160059" d="M 569.183594 367.394531 L 589.289062 367.394531 L 589.289062 387.503906 L 569.183594 387.503906 Z M 569.183594 367.394531 " fill-opacity="1" fill-rule="nonzero"/><path fill="#160059" d="M 549.074219 387.503906 L 569.183594 387.503906 L 569.183594 427.722656 L 549.074219 427.722656 Z M 549.074219 387.503906 " fill-opacity="1" fill-rule="nonzero"/><path fill="#160059" d="M 528.964844 427.722656 L 549.074219 427.722656 L 549.074219 488.050781 L 528.964844 488.050781 Z M 528.964844 427.722656 " fill-opacity="1" fill-rule="nonzero"/><g clip-path="url(#13f3357f78)"><path fill="#160059" d="M 508.855469 467.941406 L 528.964844 467.941406 L 528.964844 548.375 L 508.855469 548.375 Z M 508.855469 467.941406 " fill-opacity="1" fill-rule="nonzero"/></g><path fill="#160059" d="M 589.289062 367.394531 L 609.398438 367.394531 L 609.398438 387.503906 L 589.289062 387.503906 Z M 589.289062 367.394531 " fill-opacity="1" fill-rule="nonzero"/><g clip-path="url(#4fae92bff0)"><path fill="#160059" d="M 508.855469 548.375 L 528.964844 548.375 L 528.964844 588.59375 L 508.855469 588.59375 Z M 508.855469 548.375 " fill-opacity="1" fill-rule="nonzero"/></g><path fill="#160059" d="M 528.964844 588.59375 L 609.398438 588.59375 L 609.398438 608.703125 L 528.964844 608.703125 Z M 528.964844 588.59375 " fill-opacity="1" fill-rule="nonzero"/><g mask="url(#2d63ec2c62)"><g transform="matrix(1, 0, 0, 1, 548, 548)"><g clip-path="url(#1b4a96ee51)"><g clip-path="url(#711f8709ca)"><path fill="#160059" d="M 1.074219 0.375 L 21.183594 0.375 L 21.183594 20.484375 L 1.074219 20.484375 Z M 1.074219 0.375 " fill-opacity="1" fill-rule="nonzero"/></g></g></g></g><g mask="url(#62598df7b9)"><g transform="matrix(1, 0, 0, 1, 870, 548)"><g clip-path="url(#fce406f17f)"><g clip-path="url(#86351165ee)"><path fill="#160059" d="M 0.8125 0.375 L 20.921875 0.375 L 20.921875 20.484375 L 0.8125 20.484375 Z M 0.8125 0.375 " fill-opacity="1" fill-rule="nonzero"/></g></g></g></g><g clip-path="url(#b981920142)"><g mask="url(#74ed7e93cf)"><g transform="matrix(1, 0, 0, 1, 729, 25)"><g clip-path="url(#5abbe6fc4a)"><g clip-path="url(#fa5f20747d)"><path fill="#160059" d="M 1.050781 0.546875 L 61.378906 0.546875 L 61.378906 20.65625 L 1.050781 20.65625 Z M 1.050781 0.546875 " fill-opacity="1" fill-rule="nonzero"/></g></g></g></g></g><g mask="url(#7cf74a0208)"><g transform="matrix(1, 0, 0, 1, 569, 186)"><g clip-path="url(#4cff68f7e3)"><g clip-path="url(#b678c5caf1)"><path fill="#160059" d="M 0.183594 0.417969 L 40.398438 0.417969 L 40.398438 20.527344 L 0.183594 20.527344 Z M 0.183594 0.417969 " fill-opacity="1" fill-rule="nonzero"/></g></g></g></g><g mask="url(#f6424b2321)"><g transform="matrix(1, 0, 0, 1, 609, 85)"><g clip-path="url(#b3748e18d6)"><g clip-path="url(#09144dd95b)"><path fill="#160059" d="M 40.617188 20.980469 L 40.617188 0.871094 L 0.398438 0.871094 L 0.398438 41.089844 L 20.507812 41.089844 L 20.507812 61.199219 L 60.726562 61.199219 L 60.726562 20.980469 Z M 40.617188 20.980469 " fill-opacity="1" fill-rule="nonzero"/></g></g></g></g><g mask="url(#86573622f1)"><g transform="matrix(1, 0, 0, 1, 770, 85)"><g clip-path="url(#ef4bd95809)"><g clip-path="url(#960d660cb2)"><path fill="#160059" d="M 20.378906 20.980469 L 0.269531 20.980469 L 0.269531 61.199219 L 40.488281 61.199219 L 40.488281 41.089844 L 60.597656 41.089844 L 60.597656 0.871094 L 20.378906 0.871094 Z M 20.378906 20.980469 " fill-opacity="1" fill-rule="nonzero"/></g></g></g></g><g mask="url(#7bc4564ea2)"><g transform="matrix(1, 0, 0, 1, 669, 65)"><g clip-path="url(#e68d8c1d70)"><g clip-path="url(#6e36fd1182)"><path fill="#160059" d="M 81.160156 101.308594 L 61.050781 101.308594 L 61.050781 81.199219 L 81.160156 81.199219 L 81.160156 61.089844 L 61.050781 61.089844 L 61.050781 20.871094 L 20.835938 20.871094 L 20.835938 0.765625 L 0.726562 0.765625 L 0.726562 40.980469 L 20.835938 40.980469 L 20.835938 81.199219 L 0.726562 81.199219 L 0.726562 101.308594 L 20.835938 101.308594 L 20.835938 141.527344 L 81.160156 141.527344 L 81.160156 121.417969 L 121.378906 121.417969 L 121.378906 101.308594 L 101.269531 101.308594 L 101.269531 81.199219 L 81.160156 81.199219 Z M 81.160156 101.308594 " fill-opacity="1" fill-rule="nonzero"/></g></g></g></g><g mask="url(#31b14a378e)"><g transform="matrix(1, 0, 0, 1, 790, 45)"><g clip-path="url(#7c5e5a9826)"><g clip-path="url(#11923b8b88)"><path fill="#160059" d="M 0.378906 0.65625 L 40.597656 0.65625 L 40.597656 20.765625 L 0.378906 20.765625 Z M 0.378906 0.65625 " fill-opacity="1" fill-rule="nonzero"/></g></g></g></g><g mask="url(#0a88439fa6)"><g transform="matrix(1, 0, 0, 1, 830, 65)"><g clip-path="url(#f8213c9395)"><g clip-path="url(#81b92c5741)"><path fill="#160059" d="M 0.597656 0.765625 L 20.707031 0.765625 L 20.707031 20.871094 L 0.597656 20.871094 Z M 0.597656 0.765625 " fill-opacity="1" fill-rule="nonzero"/></g></g></g></g><g mask="url(#8fb89d21a3)"><g transform="matrix(1, 0, 0, 1, 830, 85)"><g clip-path="url(#81033e9836)"><g clip-path="url(#42eeacca7c)"><path fill="#160059" d="M 81.03125 81.308594 L 81.03125 61.199219 L 60.921875 61.199219 L 60.921875 20.980469 L 40.8125 20.980469 L 40.8125 0.871094 L 20.707031 0.871094 L 20.707031 41.089844 L 40.8125 41.089844 L 40.8125 61.199219 L 20.707031 61.199219 L 20.707031 81.308594 L 40.8125 81.308594 L 40.8125 101.417969 L 20.707031 101.417969 L 20.707031 81.308594 L 0.597656 81.308594 L 0.597656 121.527344 L 40.8125 121.527344 L 40.8125 141.632812 L 60.921875 141.632812 L 60.921875 121.527344 L 81.03125 121.527344 L 81.03125 101.417969 L 60.921875 101.417969 L 60.921875 81.308594 Z M 81.03125 81.308594 " fill-opacity="1" fill-rule="nonzero"/></g></g></g></g><g mask="url(#e7f01e5e0a)"><g transform="matrix(1, 0, 0, 1, 729, 347)"><g clip-path="url(#8e30c84436)"><g clip-path="url(#64ddc7bd02)"><path fill="#160059" d="M 1.050781 0.289062 L 21.160156 0.289062 L 21.160156 20.394531 L 1.050781 20.394531 Z M 1.050781 0.289062 " fill-opacity="1" fill-rule="nonzero"/></g></g></g></g><g mask="url(#9af9bbaeb7)"><g transform="matrix(1, 0, 0, 1, 689, 347)"><g clip-path="url(#00f9acfa06)"><g clip-path="url(#cfe068a635)"><path fill="#160059" d="M 0.835938 0.289062 L 20.945312 0.289062 L 20.945312 20.394531 L 0.835938 20.394531 Z M 0.835938 0.289062 " fill-opacity="1" fill-rule="nonzero"/></g></g></g></g><g mask="url(#e2287dbc16)"><g transform="matrix(1, 0, 0, 1, 810, 648)"><g clip-path="url(#f6460c0045)"><g clip-path="url(#cb4e2c7b73)"><path fill="#160059" d="M 0.488281 0.917969 L 20.597656 0.917969 L 20.597656 101.464844 L 0.488281 101.464844 Z M 0.488281 0.917969 " fill-opacity="1" fill-rule="nonzero"/></g></g></g></g><g mask="url(#27cba1659a)"><g transform="matrix(1, 0, 0, 1, 569, 568)"><g clip-path="url(#34ae204a2a)"><g clip-path="url(#f984662a42)"><path fill="#160059" d="M 0.183594 0.484375 L 40.398438 0.484375 L 40.398438 20.59375 L 0.183594 20.59375 Z M 0.183594 0.484375 " fill-opacity="1" fill-rule="nonzero"/></g></g></g></g><g mask="url(#b7c9a7ff05)"><g transform="matrix(1, 0, 0, 1, 830, 568)"><g clip-path="url(#eec95ca248)"><g clip-path="url(#dc8b11ab4a)"><path fill="#160059" d="M 40.8125 0.484375 L 0.597656 0.484375 L 0.597656 80.917969 L 20.707031 80.917969 L 20.707031 40.703125 L 81.03125 40.703125 L 81.03125 20.59375 L 40.8125 20.59375 Z M 40.8125 0.484375 " fill-opacity="1" fill-rule="nonzero"/></g></g></g></g><g mask="url(#f9d5c365ca)"><g transform="matrix(1, 0, 0, 1, 589, 387)"><g clip-path="url(#cbac264b0c)"><g clip-path="url(#2b09189ebc)"><path fill="#160059" d="M 0.289062 0.503906 L 20.398438 0.503906 L 20.398438 101.050781 L 0.289062 101.050781 Z M 0.289062 0.503906 " fill-opacity="1" fill-rule="nonzero"/></g></g></g></g><g mask="url(#fe1a532080)"><g transform="matrix(1, 0, 0, 1, 830, 387)"><g clip-path="url(#3fe5dfb271)"><g clip-path="url(#49bfc8defd)"><path fill="#160059" d="M 0.597656 0.503906 L 20.707031 0.503906 L 20.707031 101.050781 L 0.597656 101.050781 Z M 0.597656 0.503906 " fill-opacity="1" fill-rule="nonzero"/></g></g></g></g><g mask="url(#b0c402a3f5)"><g transform="matrix(1, 0, 0, 1, 609, 367)"><g clip-path="url(#ec3597f62d)"><g clip-path="url(#32498394be)"><path fill="#160059" d="M 0.398438 0.394531 L 20.507812 0.394531 L 20.507812 20.503906 L 0.398438 20.503906 Z M 0.398438 0.394531 " fill-opacity="1" fill-rule="nonzero"/></g></g></g></g><g mask="url(#0bf594d880)"><g transform="matrix(1, 0, 0, 1, 810, 367)"><g clip-path="url(#92d9a670b2)"><g clip-path="url(#32aa45dbd6)"><path fill="#160059" d="M 0.488281 0.394531 L 20.597656 0.394531 L 20.597656 20.503906 L 0.488281 20.503906 Z M 0.488281 0.394531 " fill-opacity="1" fill-rule="nonzero"/></g></g></g></g><g mask="url(#396b1420cb)"><g transform="matrix(1, 0, 0, 1, 609, 487)"><g clip-path="url(#831f7efbc3)"><g clip-path="url(#ca5fe8e797)"><path fill="#160059" d="M 0.398438 1.050781 L 20.507812 1.050781 L 20.507812 101.59375 L 0.398438 101.59375 Z M 0.398438 1.050781 " fill-opacity="1" fill-rule="nonzero"/></g></g></g></g><g mask="url(#e9b5b3bb2b)"><g transform="matrix(1, 0, 0, 1, 810, 487)"><g clip-path="url(#ca440b9b1b)"><g clip-path="url(#f5a3b4a5d9)"><path fill="#160059" d="M 0.488281 1.050781 L 20.597656 1.050781 L 20.597656 101.59375 L 0.488281 101.59375 Z M 0.488281 1.050781 " fill-opacity="1" fill-rule="nonzero"/></g></g></g></g><g mask="url(#6cd5400342)"><g transform="matrix(1, 0, 0, 1, 629, 387)"><g clip-path="url(#363cf06caa)"><g clip-path="url(#83115a3f9b)"><path fill="#160059" d="M 0.507812 0.503906 L 20.617188 0.503906 L 20.617188 101.050781 L 0.507812 101.050781 Z M 0.507812 0.503906 " fill-opacity="1" fill-rule="nonzero"/></g></g></g></g><g mask="url(#71f8a5f3a5)"><g transform="matrix(1, 0, 0, 1, 790, 387)"><g clip-path="url(#d1c4f369f9)"><g clip-path="url(#7fec37fbab)"><path fill="#160059" d="M 0.378906 0.503906 L 20.488281 0.503906 L 20.488281 101.050781 L 0.378906 101.050781 Z M 0.378906 0.503906 " fill-opacity="1" fill-rule="nonzero"/></g></g></g></g><g mask="url(#1da884a601)"><g transform="matrix(1, 0, 0, 1, 649, 367)"><g clip-path="url(#22ff945153)"><g clip-path="url(#01aa0debe5)"><path fill="#160059" d="M 0.617188 0.394531 L 40.835938 0.394531 L 40.835938 20.503906 L 0.617188 20.503906 Z M 0.617188 0.394531 " fill-opacity="1" fill-rule="nonzero"/></g></g></g></g><g mask="url(#42f0f280c4)"><g transform="matrix(1, 0, 0, 1, 750, 367)"><g clip-path="url(#f4cc665ee3)"><g clip-path="url(#a4bde4c053)"><path fill="#160059" d="M 0.160156 0.394531 L 40.378906 0.394531 L 40.378906 20.503906 L 0.160156 20.503906 Z M 0.160156 0.394531 " fill-opacity="1" fill-rule="nonzero"/></g></g></g></g><path fill="#160059" d="M 709.945312 367.394531 L 730.050781 367.394531 L 730.050781 608.703125 L 709.945312 608.703125 Z M 709.945312 367.394531 " fill-opacity="1" fill-rule="nonzero"/><path fill="#160059" d="M 750.160156 508.15625 L 810.488281 508.15625 L 810.488281 528.265625 L 750.160156 528.265625 Z M 750.160156 508.15625 " fill-opacity="1" fill-rule="nonzero"/><path fill="#160059" d="M 629.507812 508.15625 L 689.835938 508.15625 L 689.835938 528.265625 L 629.507812 528.265625 Z M 629.507812 508.15625 " fill-opacity="1" fill-rule="nonzero"/><path fill="#160059" d="M 649.617188 548.375 L 669.726562 548.375 L 669.726562 568.484375 L 649.617188 568.484375 Z M 649.617188 548.375 " fill-opacity="1" fill-rule="nonzero"/><path fill="#160059" d="M 770.269531 548.375 L 790.378906 548.375 L 790.378906 568.484375 L 770.269531 568.484375 Z M 770.269531 548.375 " fill-opacity="1" fill-rule="nonzero"/><g mask="url(#a7744d4508)"><g transform="matrix(1, 0, 0, 1, 689, 387)"><g clip-path="url(#785ea35920)"><g clip-path="url(#3eecdf5f74)"><path fill="#160059" d="M 0.835938 0.503906 L 61.160156 0.503906 L 61.160156 221.703125 L 0.835938 221.703125 Z M 0.835938 0.503906 " fill-opacity="1" fill-rule="nonzero"/></g></g></g></g><g clip-path="url(#75d51758e6)"><g mask="url(#8d10a179bd)"><g transform="matrix(1, 0, 0, 1, 508, 528)"><g clip-path="url(#7843c44204)"><g clip-path="url(#79395f7f51)"><path fill="#160059" d="M 0.855469 0.265625 L 101.398438 0.265625 L 101.398438 20.375 L 0.855469 20.375 Z M 0.855469 0.265625 " fill-opacity="1" fill-rule="nonzero"/></g></g></g></g></g><g clip-path="url(#6c708949bf)"><g mask="url(#a42e30c3a3)"><g transform="matrix(1, 0, 0, 1, 790, 347)"><g clip-path="url(#7e2e9f1964)"><g clip-path="url(#eb45798241)"><path fill="#160059" d="M 0.378906 0.289062 L 40.597656 0.289062 L 40.597656 20.394531 L 0.378906 20.394531 Z M 0.378906 0.289062 " fill-opacity="1" fill-rule="nonzero"/></g><path fill="#160059" d="M 40.597656 20.394531 L 80.8125 20.394531 L 80.8125 40.503906 L 40.597656 40.503906 Z M 40.597656 20.394531 " fill-opacity="1" fill-rule="nonzero"/><path fill="#160059" d="M 80.8125 40.503906 L 100.921875 40.503906 L 100.921875 80.722656 L 80.8125 80.722656 Z M 80.8125 40.503906 " fill-opacity="1" fill-rule="nonzero"/><g clip-path="url(#83428b1b6c)"><path fill="#160059" d="M 121.03125 120.941406 L 121.03125 80.722656 L 100.921875 80.722656 L 100.921875 141.050781 L 121.03125 141.050781 L 121.03125 181.265625 L 60.707031 181.265625 L 60.707031 201.375 L 121.03125 201.375 L 121.03125 241.59375 L 141.140625 241.59375 L 141.140625 120.941406 Z M 121.03125 120.941406 " fill-opacity="1" fill-rule="nonzero"/></g></g></g></g></g><g mask="url(#07219c0ce1)"><g transform="matrix(1, 0, 0, 1, 609, 166)"><g clip-path="url(#0b27cc8050)"><g clip-path="url(#40c344b36e)"><path fill="#160059" d="M 201.488281 40.527344 L 141.160156 40.527344 L 141.160156 0.308594 L 80.835938 0.308594 L 80.835938 40.527344 L 0.398438 40.527344 L 0.398438 100.851562 L 20.507812 100.851562 L 20.507812 60.632812 L 201.488281 60.632812 L 201.488281 100.851562 L 221.597656 100.851562 L 221.597656 40.527344 Z M 201.488281 40.527344 " fill-opacity="1" fill-rule="nonzero"/></g></g></g></g><g mask="url(#6cbd307105)"><g transform="matrix(1, 0, 0, 1, 770, 206)"><g clip-path="url(#d57eb4596b)"><g clip-path="url(#455562cea6)"><path fill="#160059" d="M 80.707031 20.632812 L 80.707031 0.527344 L 60.597656 0.527344 L 60.597656 60.851562 L 80.707031 60.851562 L 80.707031 40.742188 L 100.8125 40.742188 L 100.8125 20.632812 Z M 80.707031 20.632812 " fill-opacity="1" fill-rule="nonzero"/></g><path fill="#160059" d="M 40.488281 80.960938 L 40.488281 101.070312 L 60.597656 101.070312 L 60.597656 60.851562 L 40.488281 60.851562 Z M 40.488281 80.960938 " fill-opacity="1" fill-rule="nonzero"/><g clip-path="url(#5bc071a342)"><path fill="#160059" d="M 0.269531 101.070312 L 40.488281 101.070312 L 40.488281 121.179688 L 0.269531 121.179688 Z M 0.269531 101.070312 " fill-opacity="1" fill-rule="nonzero"/></g></g></g></g><g clip-path="url(#38ba2efd43)"><path fill="#160059" d="M 669.726562 25.546875 L 730.050781 25.546875 L 730.050781 45.65625 L 669.726562 45.65625 Z M 669.726562 25.546875 " fill-opacity="1" fill-rule="nonzero"/></g><path fill="#160059" d="M 770.269531 307.070312 L 810.488281 307.070312 L 810.488281 327.179688 L 770.269531 327.179688 Z M 770.269531 307.070312 " fill-opacity="1" fill-rule="nonzero"/><path fill="#160059" d="M 830.597656 206.527344 L 850.707031 206.527344 L 850.707031 226.632812 L 830.597656 226.632812 Z M 830.597656 206.527344 " fill-opacity="1" fill-rule="nonzero"/><path fill="#160059" d="M 850.707031 226.632812 L 870.8125 226.632812 L 870.8125 246.742188 L 850.707031 246.742188 Z M 850.707031 226.632812 " fill-opacity="1" fill-rule="nonzero"/></svg>